<svg width="180.98mm" height="88.901mm" version="1.1" viewBox="0 0 180.98 88.901" xmlns="http://www.w3.org/2000/svg"><g transform="translate(-50.385 -73.457)"><path transform="matrix(.54536 0 0 .54355 44.214 69.619)" d="m44.646 39.387h-6.7187v35.365h-6.0677v-35.365h-6.7187v-5.3906h19.505zm19.792 32.109q0 3.2552-3.3594 3.2552h-10.286q-3.3594 0-3.3594-3.2552v-19.792q0-3.2552 3.3594-3.2552h10.286q3.3594 0 3.3594 3.2552v9.6615l-1.6406 1.6406h-9.6615v7.3698h5.599v-4.375h5.7031zm-5.7031-12.37v-6.3021h-5.599v6.3021zm39.036 15.625h-5.9115v-21.328l-5.599 0.10417v21.224h-5.9375v-21.328l-5.599 0.10417v21.224h-5.9635v-26.302h5.9635v0.96354q2.0833-0.33854 4.1406-0.67708 2.526-0.39062 4.1927-0.39062 2.0573 0 2.6562 1.1719 2.1875-0.33854 4.375-0.70312 2.8906-0.46875 4.4271-0.46875 3.2552 0 3.2552 3.2031zm21.823-5.2865q0 3.2031-2.2917 4.4792-1.6667 0.91146-5.0521 0.91146-0.78125 0-2.2135-0.05208-1.4062-0.05208-2.0312-0.05208v9.6094h-5.9635v-35.911h5.9635v0.96354q2.0833-0.3125 4.1667-0.65104 2.6302-0.41667 4.1667-0.41667 3.2552 0 3.2552 3.2031zm-5.9896-1.6406v-14.401l-5.599 0.10417v16.276h3.6979q1.901 0 1.901-1.9792zm16.224 6.9271h-5.8594v-40.755h5.8594zm21.38 0h-5.7031v-0.91146q-2.0312 0.3125-4.0625 0.625-2.6562 0.39062-4.0365 0.39062-3.2552 0-3.2552-3.2031v-9.4792q0-3.2552 3.3594-3.2552h8.0469v-6.0417h-5.7031v3.75h-5.3906v-4.9219q0-3.2552 3.3594-3.2552h10.078q3.3073 0 3.3073 3.2552zm-5.651-4.7396v-7.0573h-5.7031v7.2656zm21.276 4.7396h-6.6146q-3.3073 0-3.3073-3.2552v-17.969h-2.8125v-5.0781h2.8125v-7.1354h5.9375v7.1354h3.8281v5.0781h-3.8281v16.146h3.9844zm20.312-3.2552q0 3.2552-3.3594 3.2552h-10.286q-3.3594 0-3.3594-3.2552v-19.792q0-3.2552 3.3594-3.2552h10.286q3.3594 0 3.3594 3.2552v9.6615l-1.6406 1.6406h-9.6615v7.3698h5.599v-4.375h5.7031zm-5.7031-12.37v-6.3021h-5.599v6.3021z" fill="#fb942c" style="white-space:pre" aria-label="Template"/><path transform="scale(1.1336 .88216)" d="m57.581 145.96h-13.133v-18.157h13.133v3.5119h-8.475v3.1339h7.8653v3.5119h-7.8653v4.4875h8.475zm17.438 0h-4.4143v-6.7922q0-0.82921-0.08536-1.6462-0.08536-0.8292-0.29266-1.2194-0.24388-0.45118-0.71946-0.65848-0.46338-0.2073-1.3048-0.2073-0.59752 0-1.2194 0.1951-0.60971 0.19511-1.3292 0.62191v9.7066h-4.3899v-13.694h4.3899v1.5121q1.1706-0.91457 2.2437-1.4023 1.0853-0.48777 2.4023-0.48777 2.2193 0 3.4632 1.2926 1.256 1.2926 1.256 3.8656zm17.352-1.573q0 1.9267-0.54874 3.2437-0.54874 1.317-1.5365 2.0608-0.98773 0.75604-2.3901 1.0853-1.3901 0.34143-3.1461 0.34143-1.4267 0-2.8169-0.17071-1.3779-0.17072-2.3901-0.41461v-3.4266h0.53654q0.80482 0.31704 1.9633 0.57312 1.1584 0.26828 2.073 0.26828 1.2194 0 1.9755-0.23169 0.76823-0.2195 1.1706-0.6341 0.37802-0.39022 0.54874-0.99993 0.17072-0.60971 0.17072-1.4633v-0.25608q-0.79262 0.6463-1.756 1.0243t-2.1462 0.37802q-2.8778 0-4.4387-1.7316-1.5609-1.7316-1.5609-5.2679 0-1.695 0.47557-2.9266 0.47557-1.2316 1.3414-2.1462 0.80482-0.8536 1.9755-1.3292 1.1828-0.47557 2.4144-0.47557 1.1097 0 2.012 0.26827 0.91456 0.25608 1.6584 0.71946l0.15852-0.60971h4.2558zm-4.3899-2.7437v-6.2068q-0.37802-0.15853-0.92676-0.24389-0.54874-0.0975-0.98773-0.0975-1.7316 0-2.5974 0.99992-0.86579 0.98773-0.86579 2.7681 0 1.9755 0.73165 2.7559 0.74384 0.78043 2.195 0.78043 0.65849 0 1.2926-0.2073t1.1584-0.54874zm12.926 4.3167h-4.3899v-13.694h4.3899zm0.12194-15.645h-4.6338v-3.329h4.6338zm17.779 15.645h-4.4143v-6.7922q0-0.82921-0.0854-1.6462-0.0854-0.8292-0.29266-1.2194-0.24388-0.45118-0.71946-0.65848-0.46337-0.2073-1.3048-0.2073-0.59752 0-1.2194 0.1951-0.60971 0.19511-1.3292 0.62191v9.7066h-4.3899v-13.694h4.3899v1.5121q1.1706-0.91457 2.2437-1.4023 1.0853-0.48777 2.4023-0.48777 2.2193 0 3.4632 1.2926 1.256 1.2926 1.256 3.8656zm17.523-6.0361h-10.048q0.0975 1.6096 1.2194 2.4632 1.1341 0.8536 3.329 0.8536 1.3901 0 2.6949-0.49996 1.3048-0.49997 2.0608-1.0731h0.48777v3.5241q-1.4877 0.59751-2.8047 0.86579-1.317 0.26827-2.9144 0.26827-4.1216 0-6.3166-1.8535-2.195-1.8535-2.195-5.2801 0-3.39 2.073-5.3654 2.0852-1.9876 5.7069-1.9876 3.3412 0 5.024 1.695 1.6828 1.6828 1.6828 4.8533zm-4.3655-2.573q-0.0366-1.3779-0.68288-2.073-0.64629-0.69507-2.012-0.69507-1.2682 0-2.0852 0.65849-0.81702 0.65849-0.91457 2.1096z" fill="#2171b9" stroke-width=".33447" aria-label="Engine"/></g><g transform="translate(-50.385 -73.457)"><g transform="translate(115.01 -.11571)"><path d="m97.419 162.47c-0.45464-0.26078-7.9334-12.833-7.9323-13.12 1.6482-1.7509 3.4337-3.3873 4.7302-5.4317 1.0661-1.8527 1.9866-3.7987 2.6006-5.854 0.64278-1.6497 1.0119-3.4052 1.2085-5.1553-0.04196-2.4068 0.08907-4.8289-0.06115-7.2262-0.358-2.5007-1.1608-4.9101-1.9343-7.3041-0.88899-1.9686-1.5638-4.0518-2.8817-5.791-0.1244-0.50762-1.1698-1.2745-0.63563-1.6285 2.7945-0.9423 5.589-1.8846 8.3835-2.8269l1.5275 2.5224-2.9144 3.2819c0.70644 1.5959 1.4625 3.1715 2.0321 4.8235 1.6295 0.5869 3.4062 0.83318 5.0074 1.4356 0.59368 0.78787 0.6096 1.9147 0.97067 2.8391-1.2888 0.95255-2.7962 1.548-4.1871 2.3339 0.0744 1.7595 0.53718 4.434 0.6797 6.1888l4.4963 1.2079 0.21651 4.2509c-1.7584 0.12742-3.5156 0.28619-5.2804 0.2301-0.49484 1.7034-0.86272 4.4083-1.4229 6.095 1.4839 1.8137 3.201 2.6613 4.5416 4.5852-0.37132 0.95027-0.74263 1.9005-1.1139 2.8508-1.8726-0.62547-3.7511-1.2352-5.5456-2.0658-0.75802-0.0198-0.86227 1.3907-3.2366 4.2602 0.83489 2.5149 2.0105 4.9021 2.8717 7.4091-0.71558 0.65936-1.341 1.5858-2.1204 2.089zm-29.861-8.4667-3.9247-8.0673c-1.9073-0.0828-3.8047-0.23718-5.6551-0.73358l-4.8775 7.4068c-1.349-0.24307-2.6146-0.78762-3.9187-1.193l-0.11918-9.1778c-2.1167-0.85598-4.046-2.0644-5.9823-3.2597-1.7991 0.92246 0.74577-0.32642-7.5592 5.1943-1.0886-0.88898-2.1657-1.7921-3.2652-2.6675l12.378-12.683c1.9375 1.5823 3.9454 3.1114 6.1296 4.3316 1.932 1.0188 3.9007 1.9529 5.9816 2.6283 1.6307 0.55185 3.3457 0.88153 5.0409 1.1712 1.9138 0.15714 3.8249 0.66802 5.7428 0.29659 2.9543-0.28538 5.973-0.65938 8.6644-1.9881 1.6581-0.85892 3.4816-1.4997 4.8263-2.8413 1.2445-1.0802 2.6234-2.0337 3.4953-3.4651 0.45925-0.59355 0.85073-1.2354 1.2781-1.8516l9.4487 10.062c-0.0114 0.85225-1.6262 2.3614-2.0008 3.0989l-5.8862-3.2381c-1.2623 1.198-2.4928 2.4321-3.8844 3.4831 0.58472 2.5307 1.4022 5.0134 1.79 7.5847-0.91381 0.55261-1.8276 1.1052-2.7414 1.6578-1.7618-1.7989-3.4771-3.6386-5.0233-5.6277-1.5796 0.56427-3.4732 1.1147-5.6695 1.3715l-1.0744 8.1173c-1.0644 0.12-3.1944 0.39011-3.1944 0.39011zm-8.5083-19.788-3.4294-1.7648 1.0718-7.6391c-2.3943-1.4234-4.0261-2.8044-5.446-4.1736-2.1688 0.92366-4.5252 2.1536-6.7045 3.0271l-2.6927-2.966 4.2619-6.3939c-1.2404-1.4726-3.23-3.8796-3.9052-5.7938l-7.6535 0.24871-1.068-3.674c2.1461-1.0941 4.2921-2.1882 6.4382-3.2823-0.46413-1.8468-0.73747-3.6896-0.69737-5.5465l-7.6811-3.231 0.26994-3.2226c2.4665-0.22091 5.2902-0.31015 7.7254-0.62575 0.40202-2.2701 0.86375-3.724 1.3472-4.8816l-5.9178-4.7715 1.2834-2.2496 13.214 7.3676c-0.74855 1.5628-1.5062 3.1223-1.8356 4.837-0.57774 1.9574-0.39724 4.0405-0.62747 6.0555-0.02327 2.4156 0.77528 4.7435 1.4249 7.0475 0.76918 2.0328 1.7357 4.0018 2.8574 5.8592 1.3187 2.1043 2.922 4.015 4.5594 5.8717 1.503 1.4515 3.0168 2.8899 4.7699 4.0405 1.7219 1.3836 3.7785 2.2394 5.6785 3.342-2.2629 4.2548-4.6917 8.4305-7.2428 12.519zm49.294-16.724c-0.72164-0.0446-0.69592-1.2372-1.0776-1.7792-1.0972-2.8912-2.9374-5.4135-4.7052-7.9209-1.9948-1.8775-3.7274-4.059-6.0216-5.5893-1.3713-1.097-2.8282-2.0575-4.4251-2.7944-1.5604-0.82969-3.2395-1.4689-4.937-1.9422-1.6253-0.33651-3.2365-0.80364-4.9136-0.66277-0.98438-0.0077-1.9688-0.01543-2.9531-0.02315-0.80988-3.2325-1.1871-6.5534-1.7123-9.8379l2.7367-0.2994c0.96558 1.5561 1.6823 3.2844 2.8298 4.7146 1.3372 0.10072 2.6152 0.47195 3.8833 0.88821l1.991-4.2282c0.81866 0.19893 1.7469 0.49891 2.3721 0.98539 0.48801 1.7364 0.92426 3.4855 1.2986 5.25 1.4315 0.75795 2.8011 1.6249 4.2 2.4401 1.0031-0.86575 1.9405-1.9001 2.9847-2.6606 0.69259 0.41544 1.2852 1.0971 1.9393 1.6149 0.0904 1.6131-0.13203 3.2045-0.37976 4.7942 1.7116 1.1544 2.7341 2.5188 3.521 3.521 1.2847-0.37837 2.5423-0.85597 3.8544-1.1338 0.44857 0.74505 1.267 1.3674 1.4695 2.1941l-1.7649 3.4754c0.74136 0.9682 2.0857 3.4974 2.4025 4.6597 1.4817 0.2205 2.9627 0.44635 4.4473 0.6468 0.32306 0.76015 0.64613 1.5203 0.9692 2.2804-0.79289 0.40934-7.6673 1.3762-8.0092 1.4071zm-45.281-17.535c-0.18289 0.5387 0.26238 2.0706-0.69603 1.3831-4.4467-1.7095-8.896-3.4124-13.341-5.126 0.21686-0.84499 0.20214-1.8474 0.55733-2.5984 0.86314-0.32026 1.8957-0.02529 2.826-0.10148 1.3869 0.02242 2.7739 0.04218 4.1606 0.0768 0.67679-1.419 1.4604-2.8453 1.7143-4.4097l-4.6041-4.6946c-0.0055-0.84007 0.8614-1.3852 1.2374-2.0964 1.2747-0.03813 2.396 0.76517 3.5894 1.14 1.1227 0.34442 2.1585 1.1309 3.3446 1.1531 0.78841-0.67402 1.4817-1.5845 2.3272-2.1167l-2.0262-5.6796c0.2278-0.83508 1.1861-0.95316 1.8875-1.1996l4.8928 4.0541c0.96342-0.27424 2.7025-1.6051 4.1336-1.2928l0.10409-4.7898c0.72594 0.03453 1.5863-0.214 2.2294-5e-3 1.1669 1.6068 2.3926 3.1717 3.5017 4.8197 1.3136 0.13473 2.6454 0.16415 3.9091 0.58598 0.81609-0.48408 0.55366-1.6031 0.83748-2.4005 0.19471-0.50626 0.04517-1.758 0.75424-1.6703 0.59184 0.26787 1.481 0.2796 1.9042 0.69273 0.36859 2.6945 0.22523 5.434 0.37714 8.1476 0.33579 1.0478-0.45111 0.90621-1.1789 0.61538-1.7781-0.50025-3.634-0.74856-5.47-0.83471-2.3819 0.11273-4.7946 0.39985-6.9812 1.4099-1.2809 0.4805-2.4667 1.2392-3.5837 2.0075-1.0566 1.1752-2.3534 2.166-3.2508 3.4634-0.85243 1.422-1.7436 2.826-2.1719 4.4454-0.57657 1.6034-0.90325 3.3189-0.98414 5.0208z" fill="#2171b9"/></g><path d="m174.48 103.7 10.063 4.9854-8.3525 13.489 7.9499 3.9601-16.503 21.188 33.409-25.55-9.7945-4.2064 10.465-13.242-9.9286-4.6738v-0.15579l10.6-15.268-11.399-5.1697z" fill="#fb942c"/></g></svg>
