<?xml version="1.0" encoding="UTF-8" standalone="no"?>
<!-- Created with Inkscape (http://www.inkscape.org/) -->

<svg
   width="180.98172mm"
   height="88.90139mm"
   viewBox="0 0 180.98172 88.90139"
   version="1.1"
   id="svg1"
   xml:space="preserve"
   inkscape:version="1.4.2 (f4327f4, 2025-05-13)"
   sodipodi:docname="logo.dev.svg"
   xmlns:inkscape="http://www.inkscape.org/namespaces/inkscape"
   xmlns:sodipodi="http://sodipodi.sourceforge.net/DTD/sodipodi-0.dtd"
   xmlns="http://www.w3.org/2000/svg"
   xmlns:svg="http://www.w3.org/2000/svg"><sodipodi:namedview
     id="namedview1"
     pagecolor="#ffffff"
     bordercolor="#000000"
     borderopacity="0.25"
     inkscape:showpageshadow="2"
     inkscape:pageopacity="0.0"
     inkscape:pagecheckerboard="0"
     inkscape:deskcolor="#d1d1d1"
     inkscape:document-units="mm"
     inkscape:zoom="2.2866393"
     inkscape:cx="202.04323"
     inkscape:cy="171.21196"
     inkscape:window-width="3840"
     inkscape:window-height="2054"
     inkscape:window-x="-11"
     inkscape:window-y="-11"
     inkscape:window-maximized="1"
     inkscape:current-layer="layer1" /><defs
     id="defs1"><rect
       x="94.024452"
       y="133.82085"
       width="341.54929"
       height="88.776573"
       id="rect4" /><rect
       x="24.490089"
       y="24.927412"
       width="292.13177"
       height="91.837837"
       id="rect3" /></defs><g
     inkscape:label="Cogs"
     inkscape:groupmode="layer"
     id="layer1"
     style="display:inline"
     transform="translate(-50.385404,-73.457309)"><g
       id="g7"><text
         xml:space="preserve"
         transform="matrix(0.54535907,0,0,0.54354866,44.213673,69.619226)"
         id="text3"
         style="font-style:normal;font-variant:normal;font-weight:bold;font-stretch:condensed;font-size:53.3333px;font-family:'Agency FB';-inkscape-font-specification:'Agency FB, Bold Condensed';font-variant-ligatures:normal;font-variant-caps:normal;font-variant-numeric:normal;font-variant-east-asian:normal;text-align:start;writing-mode:lr-tb;direction:ltr;white-space:pre;shape-inside:url(#rect3);display:inline;fill:#fb942c;fill-opacity:1"
         inkscape:label="Template"><tspan
           x="24.490234"
           y="74.751903"
           id="tspan1">Template</tspan></text><text
         xml:space="preserve"
         style="font-style:normal;font-variant:normal;font-weight:bold;font-stretch:normal;font-size:24.9737px;font-family:Sans;-inkscape-font-specification:'Sans, Bold';font-variant-ligatures:normal;font-variant-caps:normal;font-variant-numeric:normal;font-variant-east-asian:normal;text-align:start;writing-mode:lr-tb;direction:ltr;text-anchor:start;fill:#2171b9;fill-opacity:1;stroke-width:0.334468"
         x="42.130924"
         y="145.95915"
         id="text5"
         transform="scale(1.1335855,0.88215666)"
         inkscape:label="Engine"><tspan
           sodipodi:role="line"
           id="tspan5"
           style="font-style:normal;font-variant:normal;font-weight:bold;font-stretch:normal;font-size:24.9737px;font-family:Sans;-inkscape-font-specification:'Sans, Bold';font-variant-ligatures:normal;font-variant-caps:normal;font-variant-numeric:normal;font-variant-east-asian:normal;fill:#2171b9;fill-opacity:1;stroke-width:0.334468"
           x="42.130924"
           y="145.95915">Engine</tspan></text></g></g><g
     inkscape:groupmode="layer"
     id="layer2"
     inkscape:label="Bolt"
     transform="translate(-50.385404,-73.457309)"><g
       id="g6"><g
         id="g2"
         transform="translate(115.01413,-0.11570717)"
         style="display:inline"><g
           id="g4"><path
             style="fill:#2171b9;fill-opacity:1"
             d="m 97.418858,162.47441 c -0.454635,-0.26078 -7.933433,-12.83271 -7.932252,-13.11999 1.648238,-1.75088 3.433689,-3.38727 4.730155,-5.4317 1.066051,-1.85267 1.986645,-3.79874 2.600628,-5.85397 0.642783,-1.6497 1.011898,-3.4052 1.208533,-5.15533 -0.04196,-2.40681 0.08907,-4.82894 -0.06115,-7.22617 -0.358,-2.50074 -1.160782,-4.91013 -1.934254,-7.30409 -0.888987,-1.96863 -1.563804,-4.05177 -2.881729,-5.79104 -0.124396,-0.50762 -1.169762,-1.27452 -0.635628,-1.62849 2.794509,-0.9423 5.589015,-1.88461 8.383519,-2.82693 l 1.52751,2.52238 -2.914392,3.28187 c 0.706442,1.59591 1.462472,3.17146 2.032072,4.82354 1.62952,0.5869 3.4062,0.83318 5.00737,1.43564 0.59368,0.78787 0.6096,1.91472 0.97067,2.83907 -1.28876,0.95255 -2.79623,1.54798 -4.18707,2.33386 0.0744,1.75949 0.53718,4.43398 0.6797,6.18884 l 4.49633,1.20787 0.21651,4.25086 c -1.75835,0.12742 -3.51558,0.28619 -5.28043,0.2301 -0.49484,1.70341 -0.86272,4.40832 -1.42286,6.09498 1.48386,1.81366 3.20104,2.66134 4.54156,4.58524 -0.37132,0.95027 -0.74263,1.90054 -1.11394,2.85081 -1.87257,-0.62547 -3.75114,-1.23521 -5.545622,-2.06575 -0.758019,-0.0198 -0.862266,1.39072 -3.23656,4.26022 0.834891,2.51491 2.010507,4.90212 2.87173,7.40913 -0.715576,0.65936 -1.341017,1.58577 -2.1204,2.08905 z m -29.861202,-8.46666 -3.924691,-8.06734 c -1.907268,-0.0828 -3.804689,-0.23718 -5.655054,-0.73358 l -4.877495,7.40684 c -1.348975,-0.24307 -2.614584,-0.78762 -3.91867,-1.19302 l -0.119184,-9.17782 c -2.116656,-0.85598 -4.045962,-2.06444 -5.98226,-3.25974 -1.799085,0.92246 0.745774,-0.32642 -7.55917,5.19433 -1.08856,-0.88898 -2.165655,-1.79209 -3.265247,-2.66748 l 12.378397,-12.683 c 1.937476,1.5823 3.945447,3.11141 6.129636,4.33157 1.931965,1.01883 3.900685,1.9529 5.981589,2.62826 1.63074,0.55185 3.345726,0.88153 5.040925,1.17117 1.913812,0.15714 3.824882,0.66802 5.742791,0.29659 2.954314,-0.28538 5.972956,-0.65938 8.664423,-1.98809 1.658091,-0.85892 3.481585,-1.49968 4.826331,-2.84132 1.244487,-1.08021 2.623411,-2.03374 3.495313,-3.46506 0.459253,-0.59355 0.85073,-1.23535 1.278062,-1.85162 l 9.448669,10.06165 c -0.0114,0.85225 -1.6262,2.36137 -2.000819,3.09894 l -5.88617,-3.23813 c -1.26227,1.19802 -2.492844,2.43208 -3.88438,3.4831 0.584722,2.5307 1.402234,5.01342 1.78999,7.58472 -0.913807,0.55261 -1.827613,1.10521 -2.74142,1.65782 -1.76176,-1.79889 -3.477105,-3.63864 -5.023273,-5.6277 -1.579562,0.56427 -3.473181,1.11471 -5.669547,1.37146 l -1.07438,8.11734 c -1.064378,0.12 -3.194366,0.39011 -3.194366,0.39011 z m -8.50828,-19.78848 -3.42943,-1.76475 1.07176,-7.63913 c -2.394259,-1.42338 -4.026085,-2.8044 -5.445968,-4.17365 -2.168824,0.92366 -4.525248,2.15356 -6.704522,3.02712 l -2.69269,-2.96595 4.26191,-6.3939 c -1.240444,-1.47257 -3.230017,-3.87963 -3.905155,-5.79377 l -7.653525,0.24871 -1.068006,-3.67397 c 2.146065,-1.09411 4.292131,-2.18821 6.438196,-3.28232 -0.464129,-1.846819 -0.737469,-3.689577 -0.697367,-5.546539 l -7.681104,-3.23105 0.26994,-3.222558 c 2.466513,-0.220913 5.290153,-0.310146 7.725356,-0.625746 0.402018,-2.270072 0.863754,-3.723984 1.347168,-4.881644 l -5.91782,-4.7715 1.28336,-2.24964 13.2137,7.36757 c -0.748549,1.56281 -1.506218,3.122316 -1.835587,4.83695 -0.577744,1.957414 -0.39724,4.040502 -0.627471,6.055512 -0.02327,2.415617 0.775281,4.743475 1.424857,7.047465 0.76918,2.03275 1.73569,4.00183 2.857374,5.85924 1.318727,2.10434 2.921957,4.01496 4.559433,5.87169 1.502996,1.45148 3.016847,2.8899 4.76994,4.04051 1.721903,1.3836 3.778453,2.23935 5.678484,3.34198 -2.262874,4.25485 -4.691746,8.43047 -7.242833,12.51935 z m 49.294414,-16.72402 c -0.72164,-0.0446 -0.69592,-1.23715 -1.07764,-1.77923 -1.09725,-2.89119 -2.93743,-5.41352 -4.70521,-7.92089 -1.99481,-1.87749 -3.727425,-4.05901 -6.021619,-5.58934 -1.371332,-1.09695 -2.828169,-2.05747 -4.425118,-2.794412 -1.560388,-0.829689 -3.239475,-1.468862 -4.936966,-1.942215 -1.625332,-0.336507 -3.236509,-0.803642 -4.913583,-0.662771 -0.984379,-0.0077 -1.968759,-0.01543 -2.953138,-0.02315 -0.809885,-3.232489 -1.187128,-6.553449 -1.71229,-9.837928 l 2.736719,-0.299396 c 0.965584,1.556069 1.682319,3.284364 2.829751,4.714576 1.337165,0.100719 2.615163,0.47195 3.88331,0.888208 l 1.99102,-4.228208 c 0.818656,0.198927 1.746924,0.498913 2.372127,0.985394 0.488007,1.736379 0.924262,3.485543 1.298553,5.250014 1.431508,0.757953 2.801066,1.624866 4.200012,2.44009 1.003132,-0.865748 1.940488,-1.900126 2.9847,-2.66057 0.692592,0.415438 1.285192,1.097065 1.939332,1.61486 0.0904,1.613081 -0.13203,3.204511 -0.37976,4.794188 1.7116,1.15435 2.73408,2.51881 3.52097,3.52098 1.28469,-0.37837 2.54231,-0.85597 3.85444,-1.1338 0.44857,0.74505 1.26698,1.36745 1.46947,2.1941 l -1.76487,3.47542 c 0.74136,0.9682 2.0857,3.49743 2.40252,4.65973 1.48172,0.2205 2.96267,0.44635 4.44728,0.6468 0.32306,0.76015 0.64613,1.5203 0.9692,2.28045 -0.79289,0.40934 -7.66731,1.3762 -8.00924,1.4071 z M 63.062556,99.960441 c -0.182892,0.538699 0.262381,2.070599 -0.696027,1.383129 -4.446737,-1.709491 -8.896019,-3.412429 -13.341173,-5.125999 0.216861,-0.844989 0.202145,-1.847399 0.557332,-2.598365 0.863142,-0.320256 1.895685,-0.02529 2.826028,-0.101485 1.386938,0.02242 2.773926,0.04218 4.16063,0.0768 0.676786,-1.419044 1.460397,-2.845292 1.71434,-4.409718 l -4.60409,-4.69461 c -0.0055,-0.840073 0.861403,-1.385246 1.23741,-2.09636 1.274736,-0.03813 2.396022,0.765166 3.589394,1.139953 1.122711,0.344421 2.158522,1.130918 3.344576,1.153097 0.788409,-0.674019 1.481666,-1.584517 2.327167,-2.11666 l -2.02621,-5.67962 c 0.227795,-0.835079 1.186132,-0.953163 1.887487,-1.19955 l 4.892774,4.054123 c 0.963425,-0.274239 2.702494,-1.605071 4.13364,-1.29281 l 0.104089,-4.789783 c 0.725943,0.03453 1.586276,-0.213999 2.22936,-0.005 1.16686,1.606817 2.392573,3.17172 3.50169,4.819659 1.313561,0.13473 2.645433,0.164152 3.90907,0.58598 0.816092,-0.484075 0.553656,-1.60307 0.83748,-2.400488 0.194711,-0.50626 0.04517,-1.75797 0.754239,-1.670328 0.591843,0.26787 1.480969,0.279605 1.904228,0.692733 0.368588,2.694511 0.225227,5.434021 0.377137,8.147578 0.335793,1.047768 -0.451109,0.906206 -1.178942,0.615384 -1.778132,-0.500249 -3.634011,-0.74856 -5.470007,-0.834707 -2.381941,0.112728 -4.794562,0.399849 -6.981173,1.409897 -1.28086,0.480495 -2.466711,1.239244 -3.583658,2.007526 -1.056577,1.175192 -2.353411,2.165967 -3.250781,3.463362 -0.852429,1.422015 -1.743597,2.826002 -2.171874,4.445404 -0.576572,1.603389 -0.903247,3.318948 -0.984139,5.020817 z"
             id="path2"
             sodipodi:nodetypes="cccccccccccccccccccccccccccccccccccccccccccccccccccccccccccccccccccccccccccccccccscccccccccccccccccccccccccccccscccccccccccccccccccccccccccccss"
             inkscape:label="Cogs" /></g></g><path
         style="fill:#fb942c;stroke:none;stroke-width:0.819654"
         d="m 174.476,103.69953 10.06283,4.98535 -8.35246,13.48862 7.94994,3.96008 -16.50302,21.1877 33.40856,-25.54989 -9.79447,-4.20638 10.46533,-13.24231 -9.92865,-4.673763 v -0.15579 l 10.5995,-15.267606 -11.39925,-5.169745 z"
         id="path1"
         sodipodi:nodetypes="ccccccccccccc"
         inkscape:label="Bolt" /></g></g></svg>
